<svg width="152" height="49" viewBox="0 0 152 49" version="1.1" xmlns="http://www.w3.org/2000/svg" xmlns:xlink="http://www.w3.org/1999/xlink">
<title>Omnisis_logo_horizontal</title>
<desc>Created using Figma</desc>
<g id="Canvas" transform="translate(8015 -1468)">
<g id="Omnisis_logo_horizontal">
<g id="Vector">
<use xlink:href="#path0_stroke" transform="translate(-8014 1469)" fill="#FFFFFF"/>
</g>
<g id="Vector">
<use xlink:href="#path1_fill" transform="translate(-7996.64 1488.68)" fill="#FFFFFF"/>
<use xlink:href="#path2_stroke" transform="translate(-7996.64 1488.68)" fill="#004751"/>
</g>
<g id="Line">
<use xlink:href="#path3_stroke" transform="matrix(-1.69807e-07 1 1 1.12521e-08 -7952 1478.31)" fill="#FFFFFF"/>
</g>
<g id="DOCS">
<use xlink:href="#path4_fill" transform="translate(-7946 1486)" fill="#FFFFFF"/>
</g>
<g id="plano executivo">
<use xlink:href="#path5_fill" transform="translate(-7934 1498)" fill="#FFFFFF"/>
</g>
</g>
</g>
<defs>
<path id="path0_stroke" d="M 45.8383 23.2632C 45.8383 35.5525 35.8072 45.5263 23.4191 45.5263L 23.4191 47.5263C 36.8992 47.5263 47.8383 36.6696 47.8383 23.2632L 45.8383 23.2632ZM 23.4191 45.5263C 11.0311 45.5263 1 35.5525 1 23.2632L -1 23.2632C -1 36.6696 9.93914 47.5263 23.4191 47.5263L 23.4191 45.5263ZM 1 23.2632C 1 10.9738 11.0311 1 23.4191 1L 23.4191 -1C 9.93914 -1 -1 9.8567 -1 23.2632L 1 23.2632ZM 23.4191 1C 35.8072 1 45.8383 10.9738 45.8383 23.2632L 47.8383 23.2632C 47.8383 9.8567 36.8992 -1 23.4191 -1L 23.4191 1Z"/>
<path id="path1_fill" d="M 3.61191 1.76601e-06L 33.2063 1.76601e-06C 35.187 1.76601e-06 36.8182 1.62032 36.8182 3.58785C 36.8182 5.55538 35.187 7.1757 33.2063 7.1757L 3.61191 7.1757C 1.63119 7.1757 -8.88925e-07 5.55538 -8.88925e-07 3.58785C -8.88925e-07 1.62032 1.63119 1.76601e-06 3.61191 1.76601e-06Z"/>
<path id="path2_stroke" d="M 3.61191 1L 33.2063 1L 33.2063 -0.999998L 3.61191 -0.999998L 3.61191 1ZM 33.2063 1C 34.641 1 35.8182 2.1789 35.8182 3.58785L 37.8182 3.58785C 37.8182 1.06174 35.733 -0.999998 33.2063 -0.999998L 33.2063 1ZM 35.8182 3.58785C 35.8182 4.99681 34.641 6.1757 33.2063 6.1757L 33.2063 8.1757C 35.733 8.1757 37.8182 6.11396 37.8182 3.58785L 35.8182 3.58785ZM 33.2063 6.1757L 3.61191 6.1757L 3.61191 8.1757L 33.2063 8.1757L 33.2063 6.1757ZM 3.61191 6.1757C 2.17716 6.1757 0.999999 4.99681 0.999999 3.58785L -1 3.58785C -1 6.11396 1.08521 8.1757 3.61191 8.1757L 3.61191 6.1757ZM 0.999999 3.58785C 0.999999 2.1789 2.17716 1 3.61191 1L 3.61191 -0.999998C 1.08521 -0.999998 -1 1.06174 -1 3.58785L 0.999999 3.58785Z"/>
<path id="path3_stroke" d="M 0 0L 30.7074 0L 30.7074 -1L 0 -1L 0 0Z"/>
<path id="path4_fill" d="M 0.867188 11L 0.867188 2.46875L 3.38672 2.46875C 4.14063 2.46875 4.80859 2.63672 5.39062 2.97266C 5.97656 3.30859 6.42969 3.78516 6.75 4.40234C 7.07031 5.01953 7.23047 5.72656 7.23047 6.52344L 7.23047 6.95117C 7.23047 7.75977 7.06836 8.4707 6.74414 9.08398C 6.42383 9.69727 5.96484 10.1699 5.36719 10.502C 4.77344 10.834 4.0918 11 3.32227 11L 0.867188 11ZM 2.34961 3.66406L 2.34961 9.81641L 3.31641 9.81641C 4.09375 9.81641 4.68945 9.57422 5.10352 9.08984C 5.52148 8.60156 5.73438 7.90234 5.74219 6.99219L 5.74219 6.51758C 5.74219 5.5918 5.54102 4.88477 5.13867 4.39648C 4.73633 3.9082 4.15234 3.66406 3.38672 3.66406L 2.34961 3.66406ZM 15.5156 6.95703C 15.5156 7.79297 15.3711 8.52734 15.082 9.16016C 14.793 9.78906 14.3789 10.2734 13.8398 10.6133C 13.3047 10.9492 12.6875 11.1172 11.9883 11.1172C 11.2969 11.1172 10.6797 10.9492 10.1367 10.6133C 9.59766 10.2734 9.17969 9.79102 8.88281 9.16602C 8.58984 8.54102 8.44141 7.82031 8.4375 7.00391L 8.4375 6.52344C 8.4375 5.69141 8.58398 4.95703 8.87695 4.32031C 9.17383 3.68359 9.58984 3.19727 10.125 2.86133C 10.6641 2.52148 11.2812 2.35156 11.9766 2.35156C 12.6719 2.35156 13.2871 2.51953 13.8223 2.85547C 14.3613 3.1875 14.7773 3.66797 15.0703 4.29688C 15.3633 4.92187 15.5117 5.65039 15.5156 6.48242L 15.5156 6.95703ZM 14.0332 6.51172C 14.0332 5.56641 13.8535 4.8418 13.4941 4.33789C 13.1387 3.83398 12.6328 3.58203 11.9766 3.58203C 11.3359 3.58203 10.834 3.83398 10.4707 4.33789C 10.1113 4.83789 9.92773 5.54687 9.91992 6.46484L 9.91992 6.95703C 9.91992 7.89453 10.1016 8.61914 10.4648 9.13086C 10.832 9.64258 11.3398 9.89844 11.9883 9.89844C 12.6445 9.89844 13.1484 9.64844 13.5 9.14844C 13.8555 8.64844 14.0332 7.91797 14.0332 6.95703L 14.0332 6.51172ZM 23.502 8.22266C 23.416 9.13281 23.0801 9.84375 22.4941 10.3555C 21.9082 10.8633 21.1289 11.1172 20.1562 11.1172C 19.4766 11.1172 18.877 10.957 18.3574 10.6367C 17.8418 10.3125 17.4434 9.85352 17.1621 9.25977C 16.8809 8.66602 16.7344 7.97656 16.7227 7.19141L 16.7227 6.39453C 16.7227 5.58984 16.8652 4.88086 17.1504 4.26758C 17.4355 3.6543 17.8438 3.18164 18.375 2.84961C 18.9102 2.51758 19.5273 2.35156 20.2266 2.35156C 21.168 2.35156 21.9258 2.60742 22.5 3.11914C 23.0742 3.63086 23.4082 4.35352 23.502 5.28711L 22.0254 5.28711C 21.9551 4.67383 21.7754 4.23242 21.4863 3.96289C 21.2012 3.68945 20.7813 3.55273 20.2266 3.55273C 19.582 3.55273 19.0859 3.78906 18.7383 4.26172C 18.3945 4.73047 18.2188 5.41992 18.2109 6.33008L 18.2109 7.08594C 18.2109 8.00781 18.375 8.71094 18.7031 9.19531C 19.0352 9.67969 19.5195 9.92188 20.1562 9.92188C 20.7383 9.92188 21.1758 9.79102 21.4688 9.5293C 21.7617 9.26758 21.9473 8.83203 22.0254 8.22266L 23.502 8.22266ZM 29.291 8.80273C 29.291 8.42773 29.1582 8.13867 28.8926 7.93555C 28.6309 7.73242 28.1562 7.52734 27.4688 7.32031C 26.7812 7.11328 26.2344 6.88281 25.8281 6.62891C 25.0508 6.14063 24.6621 5.50391 24.6621 4.71875C 24.6621 4.03125 24.9414 3.46484 25.5 3.01953C 26.0625 2.57422 26.791 2.35156 27.6855 2.35156C 28.2793 2.35156 28.8086 2.46094 29.2734 2.67969C 29.7383 2.89844 30.1035 3.21094 30.3691 3.61719C 30.6348 4.01953 30.7676 4.4668 30.7676 4.95898L 29.291 4.95898C 29.291 4.51367 29.1504 4.16602 28.8691 3.91602C 28.5918 3.66211 28.1934 3.53516 27.6738 3.53516C 27.1895 3.53516 26.8125 3.63867 26.543 3.8457C 26.2773 4.05273 26.1445 4.3418 26.1445 4.71289C 26.1445 5.02539 26.2891 5.28711 26.5781 5.49805C 26.8672 5.70508 27.3438 5.9082 28.0078 6.10742C 28.6719 6.30273 29.2051 6.52734 29.6074 6.78125C 30.0098 7.03125 30.3047 7.32031 30.4922 7.64844C 30.6797 7.97266 30.7734 8.35352 30.7734 8.79102C 30.7734 9.50195 30.5 10.0684 29.9531 10.4902C 29.4102 10.9082 28.6719 11.1172 27.7383 11.1172C 27.1211 11.1172 26.5527 11.0039 26.0332 10.7773C 25.5176 10.5469 25.1152 10.2305 24.8262 9.82812C 24.541 9.42578 24.3984 8.95703 24.3984 8.42188L 25.8809 8.42188C 25.8809 8.90625 26.041 9.28125 26.3613 9.54688C 26.6816 9.8125 27.1406 9.94531 27.7383 9.94531C 28.2539 9.94531 28.6406 9.8418 28.8984 9.63477C 29.1602 9.42383 29.291 9.14648 29.291 8.80273Z"/>
<path id="path5_fill" d="M 1.73 11.9L 1.73 9.35C 1.99 9.78 2.55 10.13 3.29 10.13C 4.7 10.13 5.53 9.02 5.53 7.59C 5.53 6.19 4.76 5.08 3.32 5.08C 2.54 5.08 1.97 5.46 1.71 5.94L 1.71 5.19L 0.8 5.19L 0.8 11.9L 1.73 11.9ZM 4.57 7.59C 4.57 8.58 4.02 9.29 3.15 9.29C 2.29 9.29 1.72 8.58 1.72 7.59C 1.72 6.63 2.29 5.91 3.15 5.91C 4.03 5.91 4.57 6.63 4.57 7.59ZM 7.66773 10L 7.66773 2.76L 6.72773 2.76L 6.72773 10L 7.66773 10ZM 8.9668 8.71C 8.9668 9.47 9.5968 10.15 10.5768 10.15C 11.4368 10.15 11.9168 9.69 12.1268 9.35C 12.1268 9.7 12.1568 9.88 12.1768 10L 13.0968 10C 13.0768 9.88 13.0368 9.63 13.0368 9.21L 13.0368 6.8C 13.0368 5.86 12.4768 5.04 11.0368 5.04C 9.9968 5.04 9.1668 5.68 9.0668 6.6L 9.9668 6.81C 10.0268 6.25 10.3968 5.84 11.0568 5.84C 11.7868 5.84 12.0968 6.23 12.0968 6.7C 12.0968 6.87 12.0168 7.02 11.7268 7.06L 10.4268 7.25C 9.5968 7.37 8.9668 7.85 8.9668 8.71ZM 10.7068 9.36C 10.2268 9.36 9.9268 9.02 9.9268 8.66C 9.9268 8.23 10.2268 8 10.6268 7.94L 12.0968 7.72L 12.0968 7.94C 12.0968 8.99 11.4768 9.36 10.7068 9.36ZM 15.4412 7.22C 15.4412 6.49 15.8212 5.9 16.5612 5.9C 17.4012 5.9 17.6812 6.44 17.6812 7.11L 17.6812 10L 18.6212 10L 18.6212 6.95C 18.6212 5.88 18.0512 5.05 16.9012 5.05C 16.3412 5.05 15.7712 5.28 15.4212 5.88L 15.4212 5.19L 14.5012 5.19L 14.5012 10L 15.4412 10L 15.4412 7.22ZM 22.1764 9.31C 21.3764 9.31 20.6764 8.71 20.6764 7.59C 20.6764 6.48 21.3764 5.88 22.1764 5.88C 22.9764 5.88 23.6764 6.48 23.6764 7.59C 23.6764 8.71 22.9764 9.31 22.1764 9.31ZM 22.1764 5.04C 20.7364 5.04 19.7164 6.13 19.7164 7.59C 19.7164 9.06 20.7364 10.15 22.1764 10.15C 23.6164 10.15 24.6364 9.06 24.6364 7.59C 24.6364 6.13 23.6164 5.04 22.1764 5.04ZM 28.9491 7.1C 28.9891 6.48 29.4691 5.87 30.2591 5.87C 31.1091 5.87 31.5591 6.41 31.5791 7.1L 28.9491 7.1ZM 31.7191 8.35C 31.5391 8.89 31.1491 9.32 30.3691 9.32C 29.5591 9.32 28.9391 8.72 28.9191 7.86L 32.5391 7.86C 32.5491 7.8 32.5591 7.68 32.5591 7.56C 32.5591 6.06 31.7291 5.04 30.2491 5.04C 29.0391 5.04 27.9491 6.07 27.9491 7.58C 27.9491 9.21 29.0791 10.15 30.3691 10.15C 31.4891 10.15 32.2591 9.48 32.5291 8.63L 31.7191 8.35ZM 33.0102 10L 34.1302 10L 35.3502 8.23L 36.5902 10L 37.7202 10C 37.4302 9.61 36.2402 7.94 35.9502 7.55L 37.6602 5.19L 36.5502 5.19L 35.3902 6.88L 34.2102 5.19L 33.0702 5.19L 34.8002 7.55L 33.0102 10ZM 39.1346 7.1C 39.1746 6.48 39.6546 5.87 40.4446 5.87C 41.2946 5.87 41.7446 6.41 41.7646 7.1L 39.1346 7.1ZM 41.9046 8.35C 41.7246 8.89 41.3346 9.32 40.5546 9.32C 39.7446 9.32 39.1246 8.72 39.1046 7.86L 42.7246 7.86C 42.7346 7.8 42.7446 7.68 42.7446 7.56C 42.7446 6.06 41.9146 5.04 40.4346 5.04C 39.2246 5.04 38.1346 6.07 38.1346 7.58C 38.1346 9.21 39.2646 10.15 40.5546 10.15C 41.6746 10.15 42.4446 9.48 42.7146 8.63L 41.9046 8.35ZM 45.9645 5.91C 46.7845 5.91 47.1345 6.46 47.2545 6.93L 48.1045 6.57C 47.9045 5.84 47.2445 5.04 45.9645 5.04C 44.5945 5.04 43.5445 6.09 43.5445 7.59C 43.5445 9.05 44.5745 10.15 45.9745 10.15C 47.2245 10.15 47.9145 9.34 48.1445 8.65L 47.3145 8.29C 47.2045 8.67 46.8745 9.28 45.9745 9.28C 45.1945 9.28 44.5045 8.69 44.5045 7.59C 44.5045 6.47 45.2045 5.91 45.9645 5.91ZM 52.3684 9.42C 52.3684 9.62 52.3884 9.89 52.4084 10L 53.3084 10C 53.2884 9.83 53.2584 9.49 53.2584 9.11L 53.2584 5.19L 52.3184 5.19L 52.3184 8.09C 52.3184 8.82 51.9384 9.32 51.1784 9.32C 50.3884 9.32 50.0884 8.74 50.0884 8.08L 50.0884 5.19L 49.1484 5.19L 49.1484 8.22C 49.1484 9.31 49.8284 10.15 50.9484 10.15C 51.5084 10.15 52.1084 9.92 52.3684 9.42ZM 56.1225 3.67L 55.2625 3.67L 55.2625 4.45C 55.2625 4.87 55.0425 5.19 54.5225 5.19L 54.2625 5.19L 54.2625 6.04L 55.1825 6.04L 55.1825 8.68C 55.1825 9.55 55.7025 10.05 56.5225 10.05C 56.8425 10.05 57.0825 9.99 57.1625 9.96L 57.1625 9.16C 57.0825 9.18 56.9125 9.2 56.7925 9.2C 56.3025 9.2 56.1225 8.98 56.1225 8.54L 56.1225 6.04L 57.1625 6.04L 57.1625 5.19L 56.1225 5.19L 56.1225 3.67ZM 59.3472 10L 59.3472 5.19L 58.4172 5.19L 58.4172 10L 59.3472 10ZM 58.2072 3.37C 58.2072 3.74 58.5072 4.04 58.8772 4.04C 59.2572 4.04 59.5572 3.74 59.5572 3.37C 59.5572 2.99 59.2572 2.69 58.8772 2.69C 58.5072 2.69 58.2072 2.99 58.2072 3.37ZM 65.0665 5.19L 64.0565 5.19L 62.6765 8.9L 61.3065 5.19L 60.2465 5.19L 62.1965 10L 63.1465 10L 65.0665 5.19ZM 67.8795 9.31C 67.0795 9.31 66.3795 8.71 66.3795 7.59C 66.3795 6.48 67.0795 5.88 67.8795 5.88C 68.6795 5.88 69.3795 6.48 69.3795 7.59C 69.3795 8.71 68.6795 9.31 67.8795 9.31ZM 67.8795 5.04C 66.4395 5.04 65.4195 6.13 65.4195 7.59C 65.4195 9.06 66.4395 10.15 67.8795 10.15C 69.3195 10.15 70.3395 9.06 70.3395 7.59C 70.3395 6.13 69.3195 5.04 67.8795 5.04Z"/>
</defs>
</svg>
